<svg width="59" height="59" viewBox="0 0 59 59" fill="none" xmlns="http://www.w3.org/2000/svg">
<path d="M36.6845 25.6561L29.4999 32.6596L22.3153 25.6561C22.1869 25.5307 22.0146 25.4605 21.8351 25.4605C21.6557 25.4605 21.4834 25.5307 21.355 25.6561C21.2929 25.717 21.2435 25.7897 21.2098 25.8699C21.1761 25.9501 21.1587 26.0363 21.1587 26.1233C21.1587 26.2103 21.1761 26.2965 21.2098 26.3767C21.2435 26.4569 21.2929 26.5296 21.355 26.5905L28.9982 34.0425C29.1324 34.1733 29.3124 34.2466 29.4999 34.2466C29.6873 34.2466 29.8673 34.1733 30.0016 34.0425L37.6448 26.5919C37.7073 26.531 37.7571 26.4581 37.7911 26.3776C37.825 26.2971 37.8425 26.2107 37.8425 26.1233C37.8425 26.0359 37.825 25.9495 37.7911 25.869C37.7571 25.7885 37.7073 25.7156 37.6448 25.6547C37.5164 25.5293 37.3441 25.4591 37.1646 25.4591C36.9852 25.4591 36.8129 25.5293 36.6845 25.6547V25.6561Z" fill="#141313"/>
<path d="M58.5 29.5C58.5 45.5163 45.5163 58.5 29.5 58.5C13.4837 58.5 0.499998 45.5163 0.499999 29.5C0.5 13.4837 13.4837 0.499999 29.5 0.499999C45.5163 0.499999 58.5 13.4837 58.5 29.5Z" stroke="#D1D1D1"/>
</svg>
